<?xml version="1.0" encoding="utf-8"?>
<!-- Generator: Adobe Illustrator 23.0.1, SVG Export Plug-In . SVG Version: 6.00 Build 0)  -->
<svg version="1.1" id="Layer_1" xmlns="http://www.w3.org/2000/svg" xmlns:xlink="http://www.w3.org/1999/xlink" x="0px" y="0px"
	 viewBox="0 0 128 24" style="enable-background:new 0 0 128 24;" xml:space="preserve">
<style type="text/css">
	.st0{fill:#126BC5;}
</style>
<g>
	<g>
		<path class="st0" d="M112.7,0.1c-0.5,0-0.8,0.4-0.8,0.8v5.9h15.6l-7.1-6.7H112.7z"/>
		<path class="st0" d="M128,8.6c0-0.5-0.4-0.8-0.8-0.8h-5.9v15.6l6.7-7.1V8.6z"/>
		<path class="st0" d="M119.5,23.9c0.5,0,0.8-0.4,0.8-0.8v-5.9h-15.6l7.1,6.7H119.5z"/>
		<path class="st0" d="M104.2,15.4c0,0.5,0.4,0.8,0.8,0.8h5.9V0.7l-6.7,7.1L104.2,15.4z"/>
	</g>
	<polygon points="32.9,2.9 32.9,10.1 22.9,10.1 22.9,2.9 19.3,2.9 19.3,21.1 22.9,21.1 22.9,13.3 32.9,13.3 32.9,21.1 36.6,21.1 
		36.6,2.9 	"/>
	<polygon points="81.4,2.9 81.4,21 97.4,21 95.4,17.9 85.1,17.9 85.1,13.3 95,13.3 95,10.2 85.1,10.2 85.1,6.1 95.3,6.1 97.3,2.9 	
		"/>
	<g>
		<path d="M5.7,2.9C1.9,2.9,0,5.2,0,8.6v6.8c0,3.9,2.5,5.7,5.7,5.7l11.4,0L15,17.7H6.4c-1.8,0-2.6-0.7-2.6-2.7V8.9
			c0-2,0.7-2.8,2.7-2.8h8.6l2-3.2L5.7,2.9L5.7,2.9z"/>
		<path d="M65.4,2.9c-2.2,0-4.4,1.3-4.4,4.7v0.9c0,3.5,2.2,4.9,4.3,4.9h7.6c0.8,0,1.4,0.1,1.4,1.5v1.5c0,1.2-0.6,1.5-1.5,1.5h-10
			l-2,3.2h12.3c3,0,5-1.5,5-4.9v-1.2c0-3.3-1.9-4.8-4.8-4.8H66c-0.8,0-1.4-0.2-1.4-1.4V7.4c0-1,0.4-1.4,1.3-1.4l9.5,0l2-3.1
			L65.4,2.9z"/>
	</g>
	<path d="M47.2,2.9L38.6,21h4.1l1.7-3.7h9.3l1.7,3.7h4.1L50.8,2.9H47.2z M48.9,6.7l3.3,7.5h-6.6L48.9,6.7z"/>
</g>
</svg>
